<?xml version="1.0" standalone="no"?>
<!DOCTYPE svg PUBLIC "-//W3C//DTD SVG 20010904//EN"
 "http://www.w3.org/TR/2001/REC-SVG-20010904/DTD/svg10.dtd">
<svg version="1.0" xmlns="http://www.w3.org/2000/svg"
 width="824.000000pt" height="723.000000pt" viewBox="0 0 824.000000 723.000000"
 preserveAspectRatio="xMidYMid meet">
<metadata>
Created by potrace 1.16, written by Peter Selinger 2001-2019
</metadata>
<g transform="translate(0.000000,723.000000) scale(0.100000,-0.100000)"
fill="#000000" stroke="none">
<path d="M10 4275 l0 -2955 1085 0 1084 0 7 53 c11 80 42 105 194 155 l125 42
332 0 331 0 56 33 c31 17 56 38 56 46 0 8 -17 59 -37 114 l-36 100 19 36 c11
20 30 38 44 42 14 4 217 7 451 8 410 1 426 0 446 -19 36 -33 36 -55 2 -195
-33 -133 -33 -135 -14 -150 17 -12 83 -14 420 -15 l400 0 123 -41 c158 -53
192 -85 192 -185 0 -24 1 -24 109 -24 126 0 121 -4 121 98 0 50 -5 76 -21 101
l-21 34 51 -6 c109 -13 138 -47 127 -150 -7 -57 -10 -67 -27 -67 -17 0 -19 9
-21 98 l-2 97 -3 -93 -4 -92 -39 0 c-22 0 -40 -4 -40 -10 0 -7 460 -10 1360
-10 l1360 0 0 2955 0 2955 -4115 0 -4115 0 0 -2955z m6695 2281 c59 -28 86
-55 110 -116 18 -43 19 -138 17 -2452 l-2 -2407 224 -3 c272 -4 261 1 261
-118 0 -69 -3 -82 -23 -102 l-23 -23 -703 -1 -704 -1 20 70 c10 39 18 92 16
117 l-2 45 422 3 422 2 0 2406 c0 2658 5 2443 -63 2484 -32 20 -73 20 -2937
20 -2864 0 -2905 0 -2937 -20 -68 -41 -63 174 -63 -2485 l0 -2405 415 0 415 0
-6 -42 c-4 -28 1 -68 15 -116 15 -55 17 -74 8 -78 -7 -2 -319 -3 -694 -2
l-681 3 -26 24 c-23 22 -26 32 -26 92 0 127 4 129 275 129 l205 0 0 2399 c0
2120 2 2403 15 2442 23 63 58 104 117 133 l52 26 2915 0 2916 0 50 -24z
m-4458 -3616 c4 0 15 8 25 17 61 55 156 -26 117 -99 -8 -15 -8 -22 1 -28 14
-9 2 -36 -29 -64 -12 -11 -21 -22 -21 -26 0 -4 37 -11 82 -15 94 -8 122 -20
166 -69 44 -50 42 -42 115 -566 21 -149 9 -176 -100 -232 l-65 -33 7 -92 c6
-75 4 -93 -7 -93 -7 0 -65 12 -130 26 -107 24 -118 24 -145 10 -25 -13 -26
-15 -7 -16 29 0 40 -31 18 -47 -23 -17 -944 -19 -974 -3 -29 16 -40 42 -76
184 -17 72 -46 184 -64 248 -29 109 -30 119 -16 146 8 16 26 32 38 36 13 3
138 6 278 6 l256 0 108 208 c59 114 115 215 123 224 9 10 40 25 71 33 l55 16
-29 20 c-16 10 -36 19 -46 19 -9 0 -27 13 -41 29 -21 26 -24 37 -21 102 2 56
6 73 16 72 7 -2 36 -8 63 -14 71 -16 126 0 179 55 l41 43 3 -48 c2 -27 6 -49
9 -49z m3095 5 c47 -19 84 -19 138 0 23 8 44 15 46 15 2 0 4 -19 4 -42 0 -57
-33 -120 -87 -168 -26 -22 -44 -42 -42 -43 2 -2 29 -11 60 -20 l57 -17 100
-193 c55 -105 106 -204 113 -219 l12 -27 272 -3 c252 -3 275 -4 294 -22 31
-28 27 -63 -33 -283 -29 -109 -57 -215 -60 -237 -4 -21 -18 -49 -31 -62 l-24
-24 -475 0 c-261 0 -481 3 -490 6 -20 8 -21 43 -1 50 8 4 15 10 15 15 0 20
-52 18 -157 -6 -61 -14 -117 -25 -123 -25 -8 0 -9 27 -4 93 l6 93 -70 38 c-85
44 -102 65 -102 127 0 62 67 531 85 595 25 89 84 126 218 139 37 4 67 9 67 12
0 3 -17 24 -37 47 -31 34 -34 41 -19 44 12 3 15 9 10 20 -25 59 -12 104 34
120 33 11 92 -8 92 -30 0 -9 3 -9 10 2 5 8 10 35 10 60 l0 45 38 -42 c20 -24
54 -50 74 -58z m-1727 -6 c49 -29 126 -29 182 0 23 11 44 21 45 21 2 0 5 -11
6 -25 1 -14 12 -47 24 -73 21 -42 26 -47 54 -46 27 1 35 -4 53 -36 25 -44 19
-68 -18 -77 -14 -3 -47 -29 -73 -58 -26 -29 -61 -58 -78 -65 -27 -11 -30 -17
-30 -55 0 -56 -26 -88 -70 -88 -45 0 -80 40 -80 92 0 33 -4 40 -30 51 -31 13
-110 92 -110 110 0 5 -11 10 -24 10 -22 0 -56 23 -56 37 0 3 10 23 22 44 18
33 24 37 50 32 26 -5 30 -2 53 51 14 31 25 65 25 76 0 25 10 25 55 -1z m-1635
-1392 c0 -1 -9 -21 -21 -42 -17 -34 -19 -51 -13 -109 6 -62 5 -68 -11 -63 -9
4 -38 7 -65 7 l-49 0 -6 55 c-8 61 6 109 36 125 29 16 129 37 129 27z"/>
<path d="M3443 1460 c-13 -5 -23 -16 -23 -25 0 -13 33 -15 255 -15 217 0 255
2 255 15 0 8 -9 19 -19 25 -24 12 -437 13 -468 0z"/>
<path d="M10 580 l0 -580 4115 0 4115 0 0 260 c0 155 -4 260 -9 260 -6 0 -12
-15 -14 -32 -2 -18 -4 -1 -4 37 0 39 2 55 4 38 2 -18 8 -33 14 -33 5 0 9 126
9 315 l0 315 -4115 0 -4115 0 0 -580z m628 168 c-3 -7 -22 -15 -44 -18 -51 -8
-89 -33 -108 -75 -23 -47 -20 -87 9 -126 14 -19 31 -46 37 -61 19 -42 28 -34
28 25 0 45 -3 54 -22 62 -15 7 -23 19 -23 35 0 21 5 25 30 25 23 0 31 -5 33
-22 3 -17 10 -23 28 -23 14 0 22 -4 19 -10 -3 -5 -15 -10 -26 -10 -16 0 -19
-7 -19 -54 0 -46 3 -54 21 -59 32 -8 13 -27 -29 -28 -23 -1 -29 -3 -14 -6 25
-5 30 -23 7 -23 -8 0 -15 -4 -15 -10 0 -5 18 -10 40 -10 42 0 50 -11 26 -36
-20 -20 -32 -18 -66 13 -25 22 -30 34 -30 74 0 35 -6 55 -24 76 -36 44 -46 68
-46 116 0 57 32 105 90 135 49 24 104 30 98 10z m329 -190 l53 -52 0 52 c0 45
3 52 20 52 19 0 20 -7 20 -90 0 -109 -7 -112 -79 -37 l-51 52 0 -52 c0 -46 -3
-53 -20 -53 -19 0 -20 7 -20 90 0 64 4 90 12 90 7 0 36 -23 65 -52z m285 -15
c3 -65 4 -68 28 -68 24 0 25 3 28 68 3 59 5 67 22 67 18 0 20 -7 20 -73 0 -78
-12 -102 -55 -108 -66 -10 -95 29 -95 127 0 51 2 54 25 54 23 0 24 -3 27 -67z
m529 54 c47 -36 51 -97 10 -138 -33 -32 -67 -37 -110 -14 -33 16 -41 33 -41
81 0 49 37 84 87 84 21 0 45 -6 54 -13z m144 -44 l54 -58 1 58 c0 44 3 57 15
57 12 0 15 -17 15 -90 0 -49 -4 -90 -9 -90 -6 0 -31 25 -58 55 -26 30 -52 55
-57 55 -5 0 -6 -20 -4 -44 6 -47 -3 -73 -21 -62 -14 9 -15 176 -1 176 6 0 35
-26 65 -57z"/>
</g>
</svg>
