<?xml version="1.0" standalone="no"?>
<!DOCTYPE svg PUBLIC "-//W3C//DTD SVG 20010904//EN"
 "http://www.w3.org/TR/2001/REC-SVG-20010904/DTD/svg10.dtd">
<svg version="1.0" xmlns="http://www.w3.org/2000/svg"
 width="1325.000000pt" height="575.000000pt" viewBox="0 0 1325.000000 575.000000"
 preserveAspectRatio="xMidYMid meet">

<g transform="translate(0.000000,575.000000) scale(0.100000,-0.100000)"
fill="#000000" stroke="none">
<path d="M0 2890 l0 -2860 6625 0 6625 0 0 2860 0 2860 -6625 0 -6625 0 0
-2860z m5541 2553 c71 -23 159 -108 178 -173 7 -25 28 -62 46 -82 51 -56 68
-145 45 -230 -13 -47 -91 -134 -135 -149 -28 -11 -35 -19 -40 -51 -5 -28 -18
-47 -47 -72 -95 -82 -189 -93 -295 -37 -100 54 -99 50 -118 256 -31 340 -31
337 -1 399 62 127 219 186 367 139z m4346 -23 c17 -10 37 -28 43 -39 8 -15 17
-19 38 -15 32 6 92 -28 99 -57 4 -13 14 -19 32 -19 40 0 90 -36 107 -77 22
-51 11 -95 -32 -132 l-35 -31 -235 0 c-194 0 -240 3 -265 16 -36 18 -62 73
-53 112 8 34 49 79 78 86 18 4 22 11 18 35 -5 39 25 99 62 122 40 24 102 24
143 -1z m1107 -86 c14 -13 16 -47 16 -220 0 -123 -4 -213 -10 -225 -7 -12 -21
-19 -40 -19 -19 0 -33 7 -40 19 -6 12 -10 102 -10 225 0 217 4 236 50 236 10
0 26 -7 34 -16z m-8621 -360 c188 -28 497 -97 727 -160 91 -26 196 -55 234
-65 108 -30 139 -57 118 -104 -11 -23 -9 -24 61 -40 40 -9 114 -25 165 -36 52
-10 97 -21 101 -24 5 -2 41 -9 82 -15 140 -21 167 -36 199 -107 10 -24 36 -64
56 -89 21 -25 38 -54 39 -64 1 -11 14 -31 29 -45 32 -29 27 -45 -14 -45 -19 0
-44 14 -77 42 -46 39 -98 68 -153 83 -14 3 -2 -7 25 -23 46 -27 165 -139 173
-162 2 -6 -12 -10 -31 -10 -33 0 -59 15 -113 65 -26 24 -201 91 -211 81 -4 -4
19 -31 51 -60 53 -49 57 -56 54 -91 -2 -21 -8 -40 -15 -42 -6 -2 -46 27 -88
66 -45 40 -110 87 -156 111 -87 45 -152 91 -217 154 -49 47 -52 45 -72 -41 -8
-40 -17 -57 -31 -60 -19 -5 -19 -32 -19 -1063 l0 -1058 29 -31 29 -31 -28 0
c-34 0 -75 40 -84 81 -3 18 -6 500 -6 1073 l0 1042 -187 37 c-342 68 -580 97
-798 97 -116 0 -144 -4 -264 -35 -173 -45 -291 -101 -331 -157 -54 -74 -62
-160 -16 -177 11 -5 120 -14 240 -20 120 -7 228 -16 240 -21 35 -13 65 -54 87
-116 111 -315 139 -1001 53 -1304 -21 -72 -77 -179 -115 -218 -36 -37 -67 -48
-179 -62 -169 -21 -315 -52 -328 -69 -15 -17 -9 -99 9 -132 28 -54 293 -172
459 -205 137 -27 483 -70 630 -78 571 -31 540 -27 540 -66 0 -22 5 -30 18 -30
35 0 99 23 199 71 124 59 166 70 306 78 104 6 107 5 107 -15 0 -32 -19 -43
-110 -58 -189 -33 -79 -49 130 -19 63 9 160 17 215 17 l100 1 3 -27 c4 -32 -6
-36 -113 -41 -92 -5 -310 -60 -300 -76 8 -14 118 -21 165 -10 85 19 139 22
155 9 23 -19 18 -27 -21 -40 -19 -7 -40 -22 -45 -34 -14 -31 -163 -116 -226
-129 -44 -9 -79 -6 -260 23 -201 33 -298 40 -322 26 -7 -5 -11 -42 -11 -100
l0 -94 -32 -6 c-42 -8 -799 10 -988 24 -363 25 -434 37 -580 97 -103 42 -137
62 -310 177 -137 90 -182 125 -299 229 l-65 57 -166 0 c-116 0 -184 5 -225 15
-224 58 -402 244 -450 471 -22 102 -22 1406 0 1509 37 176 161 341 315 417 98
49 170 67 309 75 97 5 113 4 106 -8 -5 -8 37 29 94 81 124 115 188 165 354
276 136 91 328 189 439 224 139 44 340 46 611 4z m3757 -194 c12 -8 16 -48 18
-239 3 -222 2 -231 -18 -251 -22 -22 -57 -20 -72 4 -13 20 -9 471 4 484 14 14
47 15 68 2z m-1 -804 c9 -10 12 -115 11 -383 0 -333 -2 -369 -17 -381 -18 -13
-53 -7 -65 12 -4 6 -8 175 -8 377 0 271 3 368 12 377 16 16 53 15 67 -2z
m-499 -337 c46 -22 85 -65 104 -111 14 -32 16 -101 16 -470 0 -413 1 -433 20
-472 30 -60 64 -81 130 -81 61 0 95 19 127 70 15 25 19 59 23 224 5 180 6 195
25 206 13 9 28 10 43 4 22 -8 22 -10 22 -214 0 -228 -5 -253 -63 -313 -52 -54
-103 -76 -177 -76 -74 0 -125 22 -177 76 -63 66 -63 63 -63 540 0 418 -1 433
-21 475 -44 90 -159 99 -215 16 -18 -26 -19 -57 -24 -488 -6 -514 -2 -488 -79
-558 -58 -52 -136 -73 -210 -57 -73 16 -134 59 -168 118 -27 46 -28 51 -33
244 -5 215 -8 223 -74 272 -26 20 -43 21 -292 24 l-264 3 0 49 0 50 248 0
c281 0 321 -7 389 -65 76 -64 87 -102 93 -320 6 -211 10 -227 73 -265 70 -43
170 -11 207 65 19 39 20 62 20 476 0 402 2 437 19 474 54 115 187 162 301 104z
m932 -196 c17 -15 18 -44 18 -503 0 -514 0 -510 -46 -510 -55 0 -54 -9 -54
511 0 466 1 480 20 499 24 24 38 25 62 3z m329 -790 c5 -14 9 -289 9 -641 0
-576 2 -620 19 -657 23 -52 75 -103 128 -126 40 -19 86 -19 1268 -19 920 1
1230 -2 1241 -11 18 -15 18 -63 -1 -79 -18 -15 -2424 -15 -2493 1 -97 22 -184
91 -232 185 l-25 49 -3 650 c-3 642 -2 650 18 667 26 21 59 12 71 -19z m1579
-163 c23 -14 28 -481 5 -516 -17 -26 -53 -32 -73 -12 -9 9 -12 81 -12 263 0
182 3 254 12 263 14 14 47 15 68 2z m-1150 -119 c6 -13 10 -166 10 -430 0
-359 -2 -412 -16 -425 -8 -9 -24 -16 -34 -16 -10 0 -26 7 -34 16 -14 13 -16
66 -16 425 0 264 4 417 10 430 7 12 21 19 40 19 19 0 33 -7 40 -19z m4994
-167 c14 -13 16 -55 16 -303 0 -297 -2 -310 -41 -324 -9 -3 -26 1 -38 9 -21
15 -21 21 -21 313 0 218 3 300 12 309 17 17 54 15 72 -4z m-1049 -414 c0 -22
-39 -19 -43 3 -3 15 1 18 20 15 12 -2 23 -10 23 -18z m-1735 -65 c15 -18 5
-35 -21 -35 -12 0 -19 7 -19 18 0 33 20 42 40 17z m67 -36 c16 -16 5 -39 -17
-39 -23 0 -34 16 -26 35 6 18 28 19 43 4z m273 -114 c0 -8 -7 -15 -15 -15 -8
0 -15 7 -15 15 0 8 7 15 15 15 8 0 15 -7 15 -15z m50 -30 c0 -8 -7 -15 -15
-15 -16 0 -20 12 -8 23 11 12 23 8 23 -8z m50 -30 c0 -8 -7 -15 -15 -15 -16 0
-20 12 -8 23 11 12 23 8 23 -8z m-108 -20 c0 -5 -5 -11 -11 -13 -6 -2 -11 4
-11 13 0 9 5 15 11 13 6 -2 11 -8 11 -13z m158 -10 c0 -8 -4 -15 -9 -15 -13 0
-22 16 -14 24 11 11 23 6 23 -9z m-102 -17 c-6 -18 -28 -21 -28 -4 0 9 7 16
16 16 9 0 14 -5 12 -12z m152 -13 c0 -8 -4 -15 -9 -15 -13 0 -22 16 -14 24 11
11 23 6 23 -9z m-102 -17 c-6 -18 -28 -21 -28 -4 0 9 7 16 16 16 9 0 14 -5 12
-12z m152 -13 c0 -8 -4 -15 -9 -15 -13 0 -22 16 -14 24 11 11 23 6 23 -9z
m-108 -27 c-15 -15 -26 -4 -18 18 5 13 9 15 18 6 9 -9 9 -15 0 -24z m-4278 0
c14 -19 16 -66 16 -310 0 -275 -1 -289 -20 -308 -24 -24 -29 -24 -58 -4 -22
15 -22 17 -22 314 0 258 2 301 16 314 22 22 50 20 68 -6z m4328 -30 c-15 -15
-26 -4 -18 18 5 13 9 15 18 6 9 -9 9 -15 0 -24z m53 -28 c-5 -8 -11 -8 -17 -2
-6 6 -7 16 -3 22 5 8 11 8 17 2 6 -6 7 -16 3 -22z m1078 -114 c7 -17 -1 -26
-24 -26 -21 0 -33 15 -24 30 9 15 42 12 48 -4z m-1323 -191 c0 -8 -7 -15 -15
-15 -8 0 -15 7 -15 15 0 8 7 15 15 15 8 0 15 -7 15 -15z m-4966 -29 c18 -8 46
-30 62 -50 25 -31 33 -35 64 -30 43 6 93 -22 118 -66 13 -23 24 -30 47 -30 43
0 96 -30 122 -69 34 -50 32 -129 -3 -171 -50 -59 -55 -60 -376 -60 -273 0
-295 1 -325 20 -92 56 -81 195 20 240 39 18 41 21 39 54 -6 65 45 145 108 169
28 10 91 7 124 -7z m5016 -1 c0 -8 -7 -15 -15 -15 -8 0 -15 7 -15 15 0 8 7 15
15 15 8 0 15 -7 15 -15z m50 -30 c0 -8 -4 -15 -9 -15 -13 0 -22 16 -14 24 11
11 23 6 23 -9z m-102 -17 c-6 -18 -28 -21 -28 -4 0 9 7 16 16 16 9 0 14 -5 12
-12z m152 -13 c0 -8 -4 -15 -9 -15 -13 0 -22 16 -14 24 11 11 23 6 23 -9z
m-102 -17 c-6 -18 -28 -21 -28 -4 0 9 7 16 16 16 9 0 14 -5 12 -12z m152 -13
c0 -8 -4 -15 -9 -15 -13 0 -22 16 -14 24 11 11 23 6 23 -9z m-108 -27 c-15
-15 -26 -4 -18 18 5 13 9 15 18 6 9 -9 9 -15 0 -24z m155 -15 c-3 -3 -11 -2
-17 2 -8 5 -7 11 2 22 12 15 13 14 16 -1 2 -10 1 -20 -1 -23z m-105 -15 c-15
-15 -26 -4 -18 18 5 13 9 15 18 6 9 -9 9 -15 0 -24z m53 -28 c-5 -8 -11 -8
-17 -2 -6 6 -7 16 -3 22 5 8 11 8 17 2 6 -6 7 -16 3 -22z m50 -30 c-5 -8 -11
-8 -17 -2 -6 6 -7 16 -3 22 5 8 11 8 17 2 6 -6 7 -16 3 -22z"/>
<path d="M5383 5410 c-55 -11 -91 -31 -130 -72 -87 -90 -82 -214 12 -297 54
-47 94 -61 173 -61 207 0 321 202 196 348 -55 64 -163 100 -251 82z"/>
<path d="M5707 5083 c-18 -63 -47 -188 -47 -204 0 -6 13 -1 29 10 37 27 71 96
71 144 0 34 -23 107 -33 107 -2 0 -11 -26 -20 -57z"/>
<path d="M508 4254 c-131 -69 -254 -228 -293 -379 -23 -91 -22 -1359 1 -1449
22 -86 79 -190 142 -257 54 -59 146 -127 179 -132 10 -1 23 -5 28 -9 11 -7 15
135 4 146 -3 3 -5 -26 -4 -64 1 -38 -1 -67 -4 -64 -3 3 -6 43 -6 89 0 67 2 82
12 73 7 -6 10 -14 7 -19 -3 -5 0 -9 6 -9 7 0 40 -25 73 -56 56 -50 131 -94
212 -124 27 -9 24 -5 -22 39 -29 27 -57 59 -62 72 -13 37 -116 608 -109 614 2
3 34 -8 70 -24 105 -48 210 -65 368 -58 125 5 323 37 343 56 4 4 1 27 -8 51
-8 24 -14 44 -13 45 2 1 25 15 51 30 66 38 153 119 183 171 49 84 65 140 65
238 1 162 -52 315 -146 423 -25 28 -45 54 -45 58 0 3 16 13 36 21 l36 15 -23
25 c-36 39 -115 71 -229 95 -91 18 -128 20 -275 16 -167 -5 -228 -15 -333 -53
-24 -9 -45 -14 -48 -12 -6 6 65 384 80 429 l13 36 -36 -20 c-66 -38 -194 -141
-185 -150 3 -2 -1 -9 -9 -15 -10 -9 -12 5 -12 73 0 46 3 86 6 89 3 3 5 -26 4
-64 -1 -38 1 -67 4 -64 3 3 6 39 6 80 0 41 1 74 0 73 0 0 -30 -16 -67 -35z"/>
</g>
</svg>
