<?xml version="1.0" encoding="UTF-8"?>
<svg width="1000px" height="500px" viewBox="0 0 1000 500" version="1.1" xmlns="http://www.w3.org/2000/svg" xmlns:xlink="http://www.w3.org/1999/xlink">
    <!-- Generator: Sketch 50.2 (55047) - http://www.bohemiancoding.com/sketch -->
    <title>Artboard</title>
    <desc>Created with Sketch.</desc>
    <defs></defs>
    <g id="Artboard" stroke="none" stroke-width="1" fill="none" fill-rule="evenodd">
        <rect id="Rectangle-8" fill="#263238" x="500" y="0" width="500" height="500"></rect>
        <g id="Group-12" transform="translate(578.000000, 186.000000)">
            <rect id="Rectangle-3" fill="#263238" x="0" y="0" width="345" height="128" rx="10"></rect>
            <g id="Group-11" transform="translate(37.000000, 26.000000)">
                <path d="M63,23.2999878 L68.85,23.2999878 L68.85,54.6649878 L63,54.6649878 L63,23.2999878 Z M81.54,53.69 L75.69,53.69 L75.69,23.675 L79.74,23.675 L98.01,43.7 L98.01,23.675 L103.86,23.675 L103.86,53.69 L99.81,53.69 L81.54,33.62 L81.54,53.69 Z M126.9,28.715 L120.15,28.715 L120.15,53.69 L114.3,53.69 L114.3,28.715 L107.55,28.715 L107.55,23.675 L126.9,23.675 L126.9,28.715 Z M130.59,23.675 L136.44,23.675 L136.44,42.53 C136.44,44.825 137.205,46.22 137.88,46.985 C138.735,48.02 140.31,49.055 142.65,49.055 C144.99,49.055 146.565,48.02 147.42,46.985 C148.095,46.22 148.86,44.825 148.86,42.53 L148.86,23.675 L154.71,23.675 L154.71,42.035 C154.71,44.87 154.26,47.75 152.46,50.045 C150.3,52.88 146.52,54.365 142.65,54.365 C138.78,54.365 135,52.88 132.84,50.045 C131.04,47.75 130.59,44.87 130.59,42.035 L130.59,23.675 Z M161.55,23.675 L167.4,23.675 L167.4,53.69 L161.55,53.69 L161.55,23.675 Z M190.44,28.715 L183.69,28.715 L183.69,53.69 L177.84,53.69 L177.84,28.715 L171.09,28.715 L171.09,23.675 L190.44,23.675 L190.44,28.715 Z M194.13,23.675 L199.98,23.675 L199.98,53.69 L194.13,53.69 L194.13,23.675 Z M221.4,23 C230.85,23 237.42,29.57 237.42,38.705 C237.42,47.84 230.85,54.365 221.4,54.365 C211.95,54.365 205.38,47.84 205.38,38.705 C205.38,29.57 211.95,23 221.4,23 Z M221.4,49.055 C227.25,49.055 231.39,44.78 231.39,38.705 C231.39,32.63 227.25,28.31 221.4,28.31 C215.55,28.31 211.41,32.63 211.41,38.705 C211.41,44.78 215.55,49.055 221.4,49.055 Z M248.67,53.69 L242.82,53.69 L242.82,23.675 L246.87,23.675 L265.14,43.7 L265.14,23.675 L270.99,23.675 L270.99,53.69 L266.94,53.69 L248.67,33.62 L248.67,53.69 Z" id="INTUITION" fill="#FFFFFF"></path>
                <g id="Group-2">
                    <path d="M20.5,54.5 L20.5,42.5" id="Line-3" stroke="#979797" stroke-linecap="square"></path>
                    <path d="M37,69 L34.6,69" id="Line-9" stroke="#F07078" stroke-width="4" stroke-linecap="round"></path>
                    <path d="M26,62 L35,62" id="Line-8" stroke="#82CCE0" stroke-width="4" stroke-linecap="round"></path>
                    <path d="M18.5,69.2 L28.5,69.2" id="Line-6" stroke="#EEFFFF" stroke-width="4" stroke-linecap="round"></path>
                    <path d="M19.5,54.164016 L19.5,32.1520773 C19.609222,29.6793537 19.6021903,27.9923468 19.4789048,27.0910566 C19.1058337,24.3636855 18.0087535,23 16.1876642,23 C15.199713,23 13.5565965,23 12.5536753,23.6864995 C11.3827868,24.4879726 11.0596288,25.8162094 10.8135687,27.0910566 C10.571863,28.3433435 11.0799882,29.4770433 12.5536753,31.1347921 C13.1400158,31.7943657 15.2376805,32.2505713 18.3654879,32.1520773 C19.9088409,32.1034774 22.9047792,32.052785 27.3533029,32" id="Line-4" stroke="#EEFFFF" stroke-width="4" stroke-linecap="round"></path>
                    <path d="M12.5,62 L20,62" id="Line-5" stroke="#EEFFFF" stroke-width="4" stroke-linecap="round"></path>
                    <path d="M12.5,55.5 L25.5,55.5" id="Line-2" stroke="#EEFFFF" stroke-width="4" stroke-linecap="round"></path>
                    <path d="M30.0253539,0 C29.1915645,0 27.4056605,0 24.6676419,0 C22.4110644,0 17.2018337,0.749425637 11.9444472,4.26858029 C7.63325791,7.15437573 3.36467564,11.1137673 1.07159256,17.898271 C0.263302342,20.2897447 -0.362137851,25.0340606 0.240033424,29.0098601 C0.771316953,32.5176275 1.74056285,35.4309144 4.13111261,38.7628196 C5.54809351,40.737782 7.86856579,43.1096266 9.79178371,45.1587172 C10.7066893,46.1335023 10.7066893,46.1335023 11.9444472,49.2180247 C12.1560094,49.7452427 12.2404881,50.2676568 12.2551367,50.8848357 C12.2892606,52.322553 12.2551367,55.258758 12.2551367,58.9836377 C12.2551367,60.764434 12.1881082,68.3046887 17.7506883,69.1285955 C21.0087817,73.9156503 20.6865925,75.6101123 24.6676419,75.6101123" id="Line" stroke="#EEFFFF" stroke-width="4" stroke-linecap="round"></path>
                    <path d="M31.5,55.5 L35,55.5" id="Line-7" stroke="#EEFFFF" stroke-width="4" stroke-linecap="round"></path>
                    <path d="M30,75.8 L30.6,75.8" id="Line-10" stroke="#263238" stroke-width="4" stroke-linecap="round"></path>
                    <path d="M34,32 L46,32" id="Line-11" stroke="#EEFFFF" stroke-width="4" stroke-linecap="round"></path>
                    <path d="M38,23.5 L48,23.5" id="Line-11" stroke="#EEFFFF" stroke-width="4" stroke-linecap="round"></path>
                    <path d="M25.5,23.5 L31.5,23.5" id="Line-11" stroke="#82CCE0" stroke-width="4" stroke-linecap="round"></path>
                    <path d="M27,14.5 L45.5,14.5" id="Line-11" stroke="#9DE28D" stroke-width="4" stroke-linecap="round"></path>
                    <path d="M12.5,14.5 L20,14.5" id="Line-11" stroke="#C792EA" stroke-width="4" stroke-linecap="round"></path>
                    <path d="M39.5,40.5 L41.5,40.5" id="Line-11" stroke="#FFCB6B" stroke-width="4" stroke-linecap="round"></path>
                    <path d="M26.5,40.5 L31.5,40.5" id="Line-11" stroke="#82CCE0" stroke-width="4" stroke-linecap="round"></path>
                    <path d="M30.5,48.5 L36.5,48.5" id="Line-11" stroke="#C792EA" stroke-width="4" stroke-linecap="round"></path>
                    <path d="M32.5,7 L40.5,7" id="Line-11" stroke="#FFCB6B" stroke-width="4" stroke-linecap="round"></path>
                </g>
                <polygon id="Path" stroke="#FFFFFF" stroke-width="1.5" fill="#263238" points="81.85 54.015 76 54.015 76 24 80.05 24 98.32 44.025 98.32 24 104.17 24 104.17 54.015 100.12 54.015 81.85 33.945"></polygon>
                <polygon id="Path" stroke="#FFFFFF" stroke-width="1.5" fill="#263238" points="127.35 29.04 120.6 29.04 120.6 54.015 114.75 54.015 114.75 29.04 108 29.04 108 24 127.35 24"></polygon>
                <path d="M131,24 L136.85,24 L136.85,42.855 C136.85,45.15 137.615,46.545 138.29,47.31 C139.145,48.345 140.72,49.38 143.06,49.38 C145.4,49.38 146.975,48.345 147.83,47.31 C148.505,46.545 149.27,45.15 149.27,42.855 L149.27,24 L155.12,24 L155.12,42.36 C155.12,45.195 154.67,48.075 152.87,50.37 C150.71,53.205 146.93,54.69 143.06,54.69 C139.19,54.69 135.41,53.205 133.25,50.37 C131.45,48.075 131,45.195 131,42.36 L131,24 Z" id="Path" stroke="#FFFFFF" stroke-width="1.5" fill="#263238"></path>
            </g>
        </g>
        <rect id="Rectangle-8" fill="#FFFFFF" x="0" y="0" width="500" height="500"></rect>
        <g id="Group-12" transform="translate(78.000000, 186.000000)">
            <rect id="Rectangle-3" fill="#FFFFFF" x="0" y="0" width="345" height="128" rx="10"></rect>
            <g id="Group-11" transform="translate(37.000000, 26.000000)">
                <g id="Group">
                    <g id="Group-2">
                        <path d="M20.5,54.5 L20.5,42.5" id="Line-3" stroke="#979797" stroke-linecap="square"></path>
                        <path d="M37,69 L34.6,69" id="Line-9" stroke="#F07078" stroke-width="4" stroke-linecap="round"></path>
                        <path d="M26,62 L35,62" id="Line-8" stroke="#82CCE0" stroke-width="4" stroke-linecap="round"></path>
                        <path d="M18.5,69.2 L28.5,69.2" id="Line-6" stroke="#263238" stroke-width="4" stroke-linecap="round"></path>
                        <path d="M19.5,54.164016 L19.5,32.1520773 C19.609222,29.6793537 19.6021903,27.9923468 19.4789048,27.0910566 C19.1058337,24.3636855 18.0087535,23 16.1876642,23 C15.199713,23 13.5565965,23 12.5536753,23.6864995 C11.3827868,24.4879726 11.0596288,25.8162094 10.8135687,27.0910566 C10.571863,28.3433435 11.0799882,29.4770433 12.5536753,31.1347921 C13.1400158,31.7943657 15.2376805,32.2505713 18.3654879,32.1520773 C19.9088409,32.1034774 22.9047792,32.052785 27.3533029,32" id="Line-4" stroke="#263238" stroke-width="4" stroke-linecap="round"></path>
                        <path d="M12.5,62 L20,62" id="Line-5" stroke="#263238" stroke-width="4" stroke-linecap="round"></path>
                        <path d="M12.5,55.5 L25.5,55.5" id="Line-2" stroke="#263238" stroke-width="4" stroke-linecap="round"></path>
                        <path d="M30.0253539,0 C29.1915645,0 27.4056605,0 24.6676419,0 C22.4110644,0 17.2018337,0.749425637 11.9444472,4.26858029 C7.63325791,7.15437573 3.36467564,11.1137673 1.07159256,17.898271 C0.263302342,20.2897447 -0.362137851,25.0340606 0.240033424,29.0098601 C0.771316953,32.5176275 1.74056285,35.4309144 4.13111261,38.7628196 C5.54809351,40.737782 7.86856579,43.1096266 9.79178371,45.1587172 C10.7066893,46.1335023 10.7066893,46.1335023 11.9444472,49.2180247 C12.1560094,49.7452427 12.2404881,50.2676568 12.2551367,50.8848357 C12.2892606,52.322553 12.2551367,55.258758 12.2551367,58.9836377 C12.2551367,60.764434 12.1881082,68.3046887 17.7506883,69.1285955 C21.0087817,73.9156503 20.6865925,75.6101123 24.6676419,75.6101123" id="Line" stroke="#263238" stroke-width="4" stroke-linecap="round"></path>
                        <path d="M31.5,55.5 L35,55.5" id="Line-7" stroke="#263238" stroke-width="4" stroke-linecap="round"></path>
                        <path d="M30,75.8 L30.6,75.8" id="Line-10" stroke="#263238" stroke-width="4" stroke-linecap="round"></path>
                        <path d="M34,32 L46,32" id="Line-11" stroke="#263238" stroke-width="4" stroke-linecap="round"></path>
                        <path d="M38,23.5 L48,23.5" id="Line-11" stroke="#263238" stroke-width="4" stroke-linecap="round"></path>
                        <path d="M25.5,23.5 L31.5,23.5" id="Line-11" stroke="#82CCE0" stroke-width="4" stroke-linecap="round"></path>
                        <path d="M27,14.5 L45.5,14.5" id="Line-11" stroke="#9DE28D" stroke-width="4" stroke-linecap="round"></path>
                        <path d="M12.5,14.5 L20,14.5" id="Line-11" stroke="#C792EA" stroke-width="4" stroke-linecap="round"></path>
                        <path d="M39.5,40.5 L41.5,40.5" id="Line-11" stroke="#FFCB6B" stroke-width="4" stroke-linecap="round"></path>
                        <path d="M26.5,40.5 L31.5,40.5" id="Line-11" stroke="#82CCE0" stroke-width="4" stroke-linecap="round"></path>
                        <path d="M30.5,48.5 L36.5,48.5" id="Line-11" stroke="#C792EA" stroke-width="4" stroke-linecap="round"></path>
                        <path d="M32.5,7 L40.5,7" id="Line-11" stroke="#263238" stroke-width="4" stroke-linecap="round"></path>
                    </g>
                </g>
                <path d="M63,23.3000031 L68.85,23.3000031 L68.85,54.7000027 L63,54.7000027 L63,23.3000031 Z M81.54,53.69 L75.69,53.69 L75.69,23.675 L79.74,23.675 L98.01,43.7 L98.01,23.675 L103.86,23.675 L103.86,53.69 L99.81,53.69 L81.54,33.62 L81.54,53.69 Z M126.9,28.715 L120.15,28.715 L120.15,53.69 L114.3,53.69 L114.3,28.715 L107.55,28.715 L107.55,23.675 L126.9,23.675 L126.9,28.715 Z M130.59,23.675 L136.44,23.675 L136.44,42.53 C136.44,44.825 137.205,46.22 137.88,46.985 C138.735,48.02 140.31,49.055 142.65,49.055 C144.99,49.055 146.565,48.02 147.42,46.985 C148.095,46.22 148.86,44.825 148.86,42.53 L148.86,23.675 L154.71,23.675 L154.71,42.035 C154.71,44.87 154.26,47.75 152.46,50.045 C150.3,52.88 146.52,54.365 142.65,54.365 C138.78,54.365 135,52.88 132.84,50.045 C131.04,47.75 130.59,44.87 130.59,42.035 L130.59,23.675 Z M161.55,23.675 L167.4,23.675 L167.4,53.69 L161.55,53.69 L161.55,23.675 Z M190.44,28.715 L183.69,28.715 L183.69,53.69 L177.84,53.69 L177.84,28.715 L171.09,28.715 L171.09,23.675 L190.44,23.675 L190.44,28.715 Z M194.13,23.675 L199.98,23.675 L199.98,53.69 L194.13,53.69 L194.13,23.675 Z M221.4,23 C230.85,23 237.42,29.57 237.42,38.705 C237.42,47.84 230.85,54.365 221.4,54.365 C211.95,54.365 205.38,47.84 205.38,38.705 C205.38,29.57 211.95,23 221.4,23 Z M221.4,49.055 C227.25,49.055 231.39,44.78 231.39,38.705 C231.39,32.63 227.25,28.31 221.4,28.31 C215.55,28.31 211.41,32.63 211.41,38.705 C211.41,44.78 215.55,49.055 221.4,49.055 Z M248.67,53.69 L242.82,53.69 L242.82,23.675 L246.87,23.675 L265.14,43.7 L265.14,23.675 L270.99,23.675 L270.99,53.69 L266.94,53.69 L248.67,33.62 L248.67,53.69 Z" id="INTUITION" fill="#263238"></path>
                <polygon id="Path" stroke="#263238" stroke-width="1.5" fill="#FFFFFF" points="81.85 54.015 76 54.015 76 24 80.05 24 98.32 44.025 98.32 24 104.17 24 104.17 54.015 100.12 54.015 81.85 33.945"></polygon>
                <polygon id="Path" stroke="#263238" stroke-width="1.5" fill="#FFFFFF" points="127.35 29.04 120.6 29.04 120.6 54.015 114.75 54.015 114.75 29.04 108 29.04 108 24 127.35 24"></polygon>
                <path d="M131,24 L136.85,24 L136.85,42.855 C136.85,45.15 137.615,46.545 138.29,47.31 C139.145,48.345 140.72,49.38 143.06,49.38 C145.4,49.38 146.975,48.345 147.83,47.31 C148.505,46.545 149.27,45.15 149.27,42.855 L149.27,24 L155.12,24 L155.12,42.36 C155.12,45.195 154.67,48.075 152.87,50.37 C150.71,53.205 146.93,54.69 143.06,54.69 C139.19,54.69 135.41,53.205 133.25,50.37 C131.45,48.075 131,45.195 131,42.36 L131,24 Z" id="Path" stroke="#263238" stroke-width="1.5" fill="#FFFFFF"></path>
            </g>
        </g>
    </g>
</svg>